<svg width="73" height="48" viewBox="0 0 73 48" fill="none" xmlns="http://www.w3.org/2000/svg">
<path opacity="0.1" d="M33.112 40.688C29.8267 44.912 25.176 47.024 19.16 47.024C13.144 47.024 8.49333 44.912 5.208 40.688C1.92267 36.3787 0.28 30.6827 0.28 23.6C0.28 16.5173 1.92267 10.8427 5.208 6.576C8.45067 2.30933 13.1013 0.175999 19.16 0.175999C25.2187 0.175999 29.8693 2.30933 33.112 6.576C36.3973 10.8427 38.04 16.5173 38.04 23.6C38.04 30.6827 36.3973 36.3787 33.112 40.688ZM19.16 12.592C15.1067 12.592 13.08 16.2613 13.08 23.6C13.08 30.9387 15.1067 34.608 19.16 34.608C23.2133 34.608 25.24 30.9387 25.24 23.6C25.24 16.2613 23.2133 12.592 19.16 12.592ZM72.3515 46H39.9675V36.656L54.5595 20.848L55.6475 19.632C56.4582 18.8213 57.0555 18.1813 57.4395 17.712C58.2075 16.816 58.5915 15.9627 58.5915 15.152C58.5915 14.384 58.3355 13.7653 57.8235 13.296C57.3115 12.8267 56.5648 12.592 55.5835 12.592C53.1942 12.592 51.4235 14.1067 50.2715 17.136L39.0075 10.992C40.5008 7.49333 42.6768 4.82667 45.5355 2.992C48.4368 1.11466 51.7222 0.175999 55.3915 0.175999C59.7435 0.175999 63.4982 1.43467 66.6555 3.952C69.8128 6.46933 71.3915 9.904 71.3915 14.256C71.3915 16.9867 70.7942 19.3333 69.5995 21.296C68.4475 23.2587 66.6128 25.6693 64.0955 28.528L59.5515 33.584H72.3515V46Z" fill="#4461FA"/>
</svg>
