<svg width="72" height="48" viewBox="0 0 72 48" fill="none" xmlns="http://www.w3.org/2000/svg">
<path opacity="0.1" d="M33.112 40.688C29.8267 44.912 25.176 47.024 19.16 47.024C13.144 47.024 8.49333 44.912 5.208 40.688C1.92267 36.3787 0.28 30.6827 0.28 23.6C0.28 16.5173 1.92267 10.8427 5.208 6.576C8.45067 2.30933 13.1013 0.175999 19.16 0.175999C25.2187 0.175999 29.8693 2.30933 33.112 6.576C36.3973 10.8427 38.04 16.5173 38.04 23.6C38.04 30.6827 36.3973 36.3787 33.112 40.688ZM19.16 12.592C15.1067 12.592 13.08 16.2613 13.08 23.6C13.08 30.9387 15.1067 34.608 19.16 34.608C23.2133 34.608 25.24 30.9387 25.24 23.6C25.24 16.2613 23.2133 12.592 19.16 12.592ZM69.2305 11.056L62.1265 19.504C65.1132 20.4 67.4385 21.9147 69.1025 24.048C70.8092 26.1813 71.6625 28.8053 71.6625 31.92C71.6625 36.8693 70.0838 40.624 66.9265 43.184C63.8118 45.744 59.8438 47.024 55.0225 47.024C51.0118 47.024 47.5558 46.128 44.6545 44.336C41.7532 42.5013 39.6625 39.856 38.3825 36.4L49.6465 29.936C50.5425 33.0507 52.3345 34.608 55.0225 34.608C56.1745 34.608 57.0918 34.3093 57.7745 33.712C58.4998 33.1147 58.8625 32.304 58.8625 31.28C58.8625 29.1467 57.5825 28.08 55.0225 28.08H52.2705L47.2785 20.656L53.2945 13.616H39.7905V1.2H69.2305V11.056Z" fill="#4461FA"/>
</svg>