<svg width="77" height="48" viewBox="0 0 77 48" fill="none" xmlns="http://www.w3.org/2000/svg">
<path opacity="0.1" d="M33.112 40.688C29.8267 44.912 25.176 47.024 19.16 47.024C13.144 47.024 8.49333 44.912 5.208 40.688C1.92267 36.3787 0.28 30.6827 0.28 23.6C0.28 16.5173 1.92267 10.8427 5.208 6.576C8.45067 2.30933 13.1013 0.175999 19.16 0.175999C25.2187 0.175999 29.8693 2.30933 33.112 6.576C36.3973 10.8427 38.04 16.5173 38.04 23.6C38.04 30.6827 36.3973 36.3787 33.112 40.688ZM19.16 12.592C15.1067 12.592 13.08 16.2613 13.08 23.6C13.08 30.9387 15.1067 34.608 19.16 34.608C23.2133 34.608 25.24 30.9387 25.24 23.6C25.24 16.2613 23.2133 12.592 19.16 12.592ZM71.9375 27.952H76.4175V39.472H71.9375V46H59.3935V39.472H40.5775V27.952L52.9295 1.2H67.4575L54.9135 27.952H59.3935V21.68H71.9375V27.952Z" fill="#4461FA"/>
</svg>