<svg width="66" height="58" viewBox="0 0 66 58" fill="none" xmlns="http://www.w3.org/2000/svg">
<path d="M5.93362 10.0811L8.81156 18.0614L12.3747 10.0811L15.8009 18.0614L18.6788 10.0811M23.6124 10.0811L26.6274 18.0614L29.7794 10.0811L33.2056 18.0614L36.0835 10.0811M41.2912 10.0811L44.3062 18.0614L47.4582 10.0811L50.6103 18.0614L53.8994 10.0811M1 23.2899V2.7887C1.09136 2.19247 1.84968 1 4.15203 1C6.45439 1 43.9408 1 62.3961 1C63.2641 1.04586 65 1.63292 65 3.61425C65 5.59558 65 17.5569 65 23.2899C64.863 24.1613 64.1503 25.9042 62.3961 25.9042C60.642 25.9042 22.8358 25.9042 4.15203 25.9042C3.10136 25.9042 1 25.3813 1 23.2899ZM58.4218 17.2359C57.9677 17.2359 57.5996 17.6055 57.5996 18.0614C57.5996 18.5174 57.9677 18.887 58.4218 18.887C58.876 18.887 59.2441 18.5174 59.2441 18.0614C59.2441 17.6055 58.876 17.2359 58.4218 17.2359ZM20.0493 22.3268L25.1199 51.0835L30.6017 43.9287L40.3319 57L46.0878 52.5971L36.6317 39.801L45.1285 36.6364L20.0493 22.3268Z" stroke="black" stroke-width="1.5" stroke-linecap="round" stroke-linejoin="round"/>
</svg>