<svg width="41" height="58" viewBox="0 0 41 58" fill="none" xmlns="http://www.w3.org/2000/svg">
<path d="M23.6849 30.6986V27.0809M23.6849 24.4521C23.9772 23.8676 24.9342 22.6986 26.4247 22.6986C27.9151 22.6986 28.7991 23.8676 29.0548 24.4521M23.6849 24.4521V27.0809M23.6849 24.4521V21.4354M29.0548 24.4521V30.6986M29.0548 24.4521C29.347 23.8676 30.326 22.6986 31.9041 22.6986C33.4822 22.6986 34.242 23.8676 34.4247 24.4521M34.4247 24.4521C34.4247 24.4521 34.4247 28.4596 34.4247 31.0274M34.4247 24.4521C34.8265 23.8676 35.9808 22.6986 37.3836 22.6986C38.7863 22.6986 39.5023 23.8676 39.6849 24.4521V47.2466L37.9315 50.9726V57H23.137V52.0685L17.2192 46.1507L10.3151 33.3288C9.94977 32.8174 9.5041 31.5315 10.6438 30.4795C11.7836 29.4274 12.7991 29.895 13.1644 30.2603L18.4247 34.9726V26.9919M18.4247 26.9919C12.5316 25.6901 8.12329 20.4352 8.12329 14.1507C8.12329 6.88776 14.0111 1 21.274 1C28.5369 1 34.4247 6.88776 34.4247 14.1507C34.4247 20.5901 29.7964 25.9485 23.6849 27.0809M18.4247 26.9919V21.2753M1 6.15069L4.72603 9M1 12.6164H4.72603M1 19.7397L4.72603 16.5M18.4247 21.2753C15.5988 20.1442 13.6027 17.3805 13.6027 14.1507C13.6027 9.91398 17.0373 6.47945 21.274 6.47945C25.5107 6.47945 28.9452 9.91398 28.9452 14.1507C28.9452 17.5451 26.7405 20.4247 23.6849 21.4354M18.4247 21.2753V20.1781V15.4658C18.5708 14.7717 19.2795 13.3836 20.9452 13.3836C22.611 13.3836 23.4658 14.7717 23.6849 15.4658V21.4354" stroke="black" stroke-width="1.5" stroke-linecap="round" stroke-linejoin="round"/>
</svg>