<svg width="58" height="58" viewBox="0 0 58 58" fill="none" xmlns="http://www.w3.org/2000/svg">
<path d="M15.2414 32.8017L10.8362 35.0948C10.1925 35.5977 9.09828 36.881 9.8707 37.9914C10.0409 38.236 10.2415 38.5476 10.4573 38.8966M15.2414 32.8017L18.3793 37.9914M15.2414 32.8017L18.5491 30.0862M21.2759 40.5869L20.1897 41.0086L17.7856 42.3362M21.2759 40.5869L23.6293 44.8103C23.8908 45.3534 24.1 46.6086 22.8448 47.2845C21.5897 47.9603 20.7529 47.2845 20.4914 46.8621L17.7856 42.3362M21.2759 40.5869L30.569 36.9786M17.7856 42.3362L16.1466 43.2414C14.1672 44.1103 12.9885 43.2414 12.6466 42.6983C12.5449 42.5119 12.4206 42.2862 12.2805 42.0345M10.4573 38.8966L7.87931 40.5869C7.53736 40.8884 7.05862 41.7328 7.87931 42.6983C8.7 43.6638 9.54885 43.6236 9.8707 43.4828L12.2805 42.0345M10.4573 38.8966C11.0562 39.8648 11.7723 41.1212 12.2805 42.0345M30.569 36.9786L36.6638 34.6121L29.0604 21.4569L18.5491 30.0862M30.569 36.9786V51.0862M30.569 51.0862H3.59483M30.569 51.0862H33.5862V53.9224C33.5862 56.1914 31.2931 56.9195 30.1466 57C29.1932 57 28.1133 57 26.9483 57M3.59483 51.0862V30.0862H18.5491M3.59483 51.0862H1V53.9224C1.06034 54.9483 1.76034 57 4.07759 57C4.60984 57 5.86543 57 7.57759 57M26.9483 54.9483V57M26.9483 57C20.8427 57 12.3995 57 7.57759 57M7.57759 54.9483V57M36.6638 15.2414L33.4052 19.6466M40.8879 20.069L36.3017 23.5086M44.6293 26.0431L39.0776 27.3103M52.3534 4.98276H49.9397C49.3764 4.94253 48.25 5.22414 48.25 6.67241C48.25 8.12069 48.25 11.5402 48.25 13.069M45.8362 8.78448H50.4224M41.3707 32.8017V32.8621M41.3707 32.8621V44.8103C41.3305 45.3937 41.6241 46.5603 43.1207 46.5603C44.6172 46.5603 51.5488 46.5603 54.8276 46.5603C55.4914 46.5201 56.819 46.0655 56.819 44.569C56.819 43.0724 56.819 36.1006 56.819 32.8017C56.7787 32.2385 56.3845 31.1121 55.1293 31.1121C53.8741 31.1121 46.6006 31.1121 43.1207 31.1121C42.5374 31.1121 41.3707 31.4621 41.3707 32.8621ZM50.9655 43.7845V39.681M49.3966 39.681C48.773 39.7011 47.5017 39.2103 47.4052 37.0862C47.3086 34.9621 48.6925 34.2701 49.3966 34.1897H50.9655V39.681M49.3966 39.681H50.9655M49.3966 39.681L47.4052 43.7845M41.3707 2.50862V14.819C41.4511 15.4023 41.9138 16.569 43.1207 16.569C44.3276 16.569 51.6293 16.569 55.1293 16.569C55.7126 16.4483 56.8793 15.9293 56.8793 14.819C56.8793 13.7086 56.8793 6.14943 56.8793 2.50862C56.819 2.00575 56.4328 1 55.3707 1C54.3086 1 46.7615 1 43.1207 1C42.5374 1 41.3707 1.30172 41.3707 2.50862ZM10.4741 5.46552V12.4655C10.5144 12.8678 10.8121 13.6724 11.681 13.6724C12.55 13.6724 20.1293 13.6724 23.8103 13.6724C24.3132 13.6523 25.319 13.3224 25.319 12.1638C25.319 11.0052 25.319 7.21552 25.319 5.46552C25.2989 5.02299 25.0052 4.13793 23.9914 4.13793C22.9776 4.13793 15.3621 4.13793 11.681 4.13793C11.2787 4.19828 10.4741 4.54828 10.4741 5.46552ZM16.2069 6.31034V11.3793L20.6724 8.90517L16.2069 6.31034Z" stroke="black" stroke-width="1.5" stroke-linecap="round" stroke-linejoin="round"/>
</svg>