<svg width="139" height="16" viewBox="0 0 139 16" fill="none" xmlns="http://www.w3.org/2000/svg">
<path d="M2.58 0.999999H8.38C10.22 0.999999 11.6867 1.70667 12.78 3.12C13.8733 4.53333 14.2533 6.22667 13.92 8.2C13.56 10.2267 12.66 11.8667 11.22 13.12C9.79333 14.3733 8.02667 15 5.92 15H0.12L2.58 0.999999ZM9.96 8C10.12 7.08 9.98667 6.33333 9.56 5.76C9.13333 5.17333 8.51333 4.88 7.7 4.88H6.1L5 11.12H6.6C7.41333 11.12 8.13333 10.8333 8.76 10.26C9.38667 9.67333 9.78667 8.92 9.96 8ZM25.7816 0.999999L25.1416 4.64H20.0416L19.7816 6.16H24.3816L23.7416 9.76H19.1416L18.8616 11.32H24.0616L23.4216 15H14.2216L16.6816 0.999999H25.7816ZM36.5823 0.999999L35.9423 4.64H30.8423L30.5823 6.16H35.1823L34.5423 9.76H29.9423L29.6623 11.32H34.8623L34.2223 15H25.0223L27.4823 0.999999H36.5823ZM38.2831 0.999999H43.7831C45.1298 0.999999 46.2365 1.48 47.1031 2.44C47.9565 3.37333 48.2765 4.63333 48.0631 6.22C47.8365 7.7 47.2031 8.87333 46.1631 9.74C45.1098 10.6067 43.7631 11.04 42.1231 11.04H40.5231L39.8231 15H35.8231L38.2831 0.999999ZM44.1031 6.02C44.1698 5.67333 44.1031 5.4 43.9031 5.2C43.7031 4.98667 43.4365 4.88 43.1031 4.88H41.6031L41.2031 7.16H42.8031C43.1231 7.16 43.4031 7.06 43.6431 6.86C43.8965 6.64667 44.0498 6.36667 44.1031 6.02ZM54.1777 0.999999L52.3977 11.12H56.9977L56.3177 15H47.7177L50.1777 0.999999H54.1777ZM57.5223 15L59.9823 0.999999H63.9823L61.5223 15H57.5223ZM67.5184 15H63.5184L65.9784 0.999999H69.1784L72.3984 7.72L73.5784 0.999999H77.5784L75.1184 15H71.9184L68.6984 8.28L67.5184 15ZM86.7122 0.999999H91.3522L85.8122 8.02L89.0322 15H84.8522L82.1722 8.98L81.1122 15H77.1122L79.5722 0.999999H83.5722L82.6322 6.4L86.7122 0.999999ZM97.1808 10.66H89.1808L89.8008 7.18H97.8008L97.1808 10.66ZM100.881 0.999999H106.381C107.727 0.999999 108.834 1.48 109.701 2.44C110.554 3.37333 110.874 4.63333 110.661 6.22C110.434 7.7 109.801 8.87333 108.761 9.74C107.707 10.6067 106.361 11.04 104.721 11.04H103.121L102.421 15H98.4208L100.881 0.999999ZM106.701 6.02C106.767 5.67333 106.701 5.4 106.501 5.2C106.301 4.98667 106.034 4.88 105.701 4.88H104.201L103.801 7.16H105.401C105.721 7.16 106.001 7.06 106.241 6.86C106.494 6.64667 106.647 6.36667 106.701 6.02ZM122.815 6.1C122.509 7.82 121.575 9.07333 120.015 9.86L121.815 14.98H117.815L116.375 10.58H115.095L114.315 14.98H110.315L112.795 0.979999H118.395C119.849 0.979999 121.015 1.46667 121.895 2.44C122.775 3.4 123.082 4.62 122.815 6.1ZM117.735 4.66H116.135L115.675 7.26H117.315C117.702 7.27333 118.029 7.16667 118.295 6.94C118.575 6.71333 118.749 6.39333 118.815 5.98C118.882 5.56667 118.815 5.24667 118.615 5.02C118.429 4.78 118.135 4.66 117.735 4.66ZM129.88 15.32C128.373 15.32 127.073 14.9467 125.98 14.2C124.927 13.4533 124.18 12.5133 123.74 11.38C123.313 10.2467 123.2 9.04 123.4 7.76C123.72 5.82667 124.633 4.16667 126.14 2.78C127.66 1.38 129.527 0.68 131.74 0.68C132.86 0.68 133.873 0.893333 134.78 1.32C135.7 1.73333 136.427 2.30667 136.96 3.04C138.067 4.54667 138.467 6.25333 138.16 8.16C137.853 10.1067 136.953 11.7867 135.46 13.2C133.993 14.6133 132.133 15.32 129.88 15.32ZM127.9 10.44C128.433 11.08 129.193 11.4 130.18 11.4C131.167 11.4 132.04 11.08 132.8 10.44C133.56 9.78667 134.027 8.97333 134.2 8C134.373 7.02667 134.193 6.22 133.66 5.58C133.127 4.92667 132.367 4.6 131.38 4.6C130.38 4.6 129.507 4.92667 128.76 5.58C128 6.22 127.533 7.02667 127.36 8C127.187 8.97333 127.367 9.78667 127.9 10.44Z" fill="white"/>
</svg>